<?xml version="1.0" encoding="iso-8859-1"?>
<!-- Generator: Adobe Illustrator 18.0.0, SVG Export Plug-In . SVG Version: 6.00 Build 0)  -->
<!DOCTYPE svg PUBLIC "-//W3C//DTD SVG 1.1//EN" "http://www.w3.org/Graphics/SVG/1.1/DTD/svg11.dtd">
<svg version="1.1" id="Capa_1" xmlns="http://www.w3.org/2000/svg" xmlns:xlink="http://www.w3.org/1999/xlink" x="0px" y="0px"
	 viewBox="0 0 350.269 350.269" style="enable-background:new 0 0 350.269 350.269;" xml:space="preserve">
<g>
	<path d="M57.241,225.333c-19.034,1.02-38.033,1.243-57.088,0.795c-0.547,6.146,0.447,11.661,1.848,17.602
		c19.535-1.352,38.932-3.429,58.287-6.398C58.594,233.391,57.586,229.352,57.241,225.333z"/>
	<path d="M65.753,246.709c-18.873,4.591-37.874,8.233-57.077,11.143c4.144,6.352,9.284,11.633,14.792,16.789
		c17.865-4.907,35.431-10.512,52.77-17.045C72.345,254.384,68.783,250.75,65.753,246.709z"/>
	<path d="M61.353,203.61c-16.276-2.141-32.415-4.822-48.515-8.031c-3.675,5.412-6.662,10.625-9.34,16.592
		c18.025,1.767,36.043,2.917,54.149,3.391C58.313,211.556,59.584,207.537,61.353,203.61z"/>
	<path d="M87.553,265.512c-15.346,7.998-31.007,15.126-47.043,21.621c8.559,5.265,17.579,9.511,26.814,13.429
		c12.882-8.348,25.32-17.179,37.356-26.705C98.769,271.339,93.167,268.633,87.553,265.512z"/>
	<path d="M92.847,309.236c11.573,3.081,23.169,5.521,34.984,7.448c5.063-10.886,9.834-21.865,14.327-32.995
		c-7.265-1.079-14.473-2.576-21.554-4.523C111.772,289.61,102.529,299.577,92.847,309.236z"/>
	<path d="M350.116,226.128c-19.055,0.448-38.054,0.225-57.088-0.795c-0.345,4.02-1.353,8.059-3.047,11.998
		c19.355,2.97,38.752,5.046,58.287,6.398C349.67,237.789,350.663,232.273,350.116,226.128z"/>
	<path d="M274.032,257.595c17.339,6.533,34.905,12.138,52.77,17.045c5.508-5.156,10.648-10.438,14.793-16.789
		c-19.203-2.909-38.204-6.552-57.077-11.143C281.486,250.75,277.925,254.384,274.032,257.595z"/>
	<path d="M346.771,212.171c-2.678-5.967-5.666-11.18-9.34-16.592c-16.1,3.209-32.238,5.891-48.515,8.031
		c1.769,3.927,3.04,7.946,3.706,11.951C310.727,215.088,328.746,213.937,346.771,212.171z"/>
	<path d="M245.588,273.856c12.036,9.526,24.474,18.357,37.357,26.705c9.235-3.918,18.256-8.164,26.814-13.429
		c-16.037-6.495-31.698-13.623-47.043-21.621C257.102,268.633,251.5,271.339,245.588,273.856z"/>
	<path d="M208.111,283.689c4.493,11.13,9.264,22.109,14.327,32.995c11.815-1.928,23.411-4.367,34.984-7.448
		c-9.682-9.659-18.924-19.626-27.756-30.07C222.584,281.113,215.376,282.61,208.111,283.689z"/>
	<path d="M175.135,286.185c-3.959,0-10.717-0.41-14.662-0.633c-0.919,11.274-1.874,22.549-2.858,33.816c0,0,3.989,0.697,17.52,0.697
		c13.531,0,17.52-0.697,17.52-0.697c-0.983-11.268-1.939-22.542-2.858-33.816C185.852,285.775,179.094,286.185,175.135,286.185z"/>
	<path d="M96.866,224.814l0.041,0.396c4.404,21.329,42.685,32.487,78.226,32.487c35.542,0,73.886-11.158,78.29-32.487l-0.004-19.197
		c0-5.814-2.441-10.967-6.675-15.438c3.433-3.504,5.778-7.439,6.679-11.806l-0.004-19.198c0-5.816-2.441-10.964-6.675-15.436
		c3.433-3.507,5.778-7.438,6.679-11.806l-0.004-19.2c0-5.813-2.441-10.965-6.675-15.433c3.433-3.507,5.778-7.441,6.679-11.806
		l-0.004-19.202c0-23.701-40.335-36.486-78.285-36.486c-37.951,0-78.286,12.785-78.286,36.488l0.019,18.797l0.041,0.403
		c0.9,4.35,3.225,8.271,6.635,11.764c-4.249,4.485-6.695,9.648-6.695,15.475l0.019,18.802l0.041,0.398
		c0.9,4.351,3.225,8.273,6.635,11.771c-4.249,4.479-6.695,9.645-6.695,15.472l0.019,18.797l0.041,0.401
		c0.9,4.351,3.225,8.273,6.635,11.769c-4.249,4.48-6.695,9.645-6.695,15.475L96.866,224.814z M175.133,47.45
		c37.862,0,61.037,12.459,61.037,19.239c0,6.782-23.175,19.24-61.037,19.24c-37.86,0-61.038-12.458-61.038-19.24
		C114.095,59.909,137.273,47.45,175.133,47.45z M118.054,107.476c15.29,7.202,36.633,10.901,57.078,10.901
		c20.431,0,41.791-3.695,57.095-10.888c2.57,2.039,3.942,4.006,3.942,5.64c0,6.783-23.175,19.239-61.037,19.239
		c-37.86,0-61.038-12.456-61.038-19.239C114.095,111.491,115.471,109.522,118.054,107.476z M118.054,153.919
		c15.29,7.196,36.633,10.903,57.078,10.903c20.431,0,41.791-3.699,57.095-10.894c2.57,2.042,3.942,4.007,3.942,5.644
		c0,6.782-23.175,19.241-61.037,19.241c-37.86,0-61.038-12.459-61.038-19.241C114.095,157.932,115.471,155.961,118.054,153.919z
		 M118.054,200.357c15.29,7.201,36.633,10.901,57.078,10.901c20.431,0,41.791-3.699,57.095-10.885
		c2.57,2.034,3.942,4.003,3.942,5.64c0,6.78-23.175,19.238-61.037,19.238c-37.86,0-61.038-12.458-61.038-19.238
		C114.095,204.373,115.471,202.405,118.054,200.357z"/>
</g>
<g>
</g>
<g>
</g>
<g>
</g>
<g>
</g>
<g>
</g>
<g>
</g>
<g>
</g>
<g>
</g>
<g>
</g>
<g>
</g>
<g>
</g>
<g>
</g>
<g>
</g>
<g>
</g>
<g>
</g>
</svg>
