<svg xmlns="http://www.w3.org/2000/svg" viewBox="0 0 104 39.5"><defs><style>.cls-1{fill:#999;}.cls-2{fill:#f68a1d;}.cls-3{fill:#fff;}</style></defs><title>Asset 1</title><g id="Layer_2" data-name="Layer 2"><g id="Layer_1-2" data-name="Layer 1"><polygon class="cls-1" points="104 20.12 94 10.62 94 16.12 0 16.12 0 24.12 94 24.12 94 29.62 104 20.12"/><path class="cls-2" d="M74.5,39c-2.08,0-15.43-.13-28.34-.25-12.62-.12-25.68-.25-27.66-.25a8,8,0,0,1-1-15.93c0-.19,0-.38,0-.57a9.49,9.49,0,0,1,14.9-7.81,19.48,19.48,0,0,1,38.05,4.63A10.5,10.5,0,1,1,74.5,39Z"/><path class="cls-3" d="M51,1A19,19,0,0,1,70,19.59,10,10,0,1,1,74.5,38.5c-4.11,0-52-.5-56-.5a7.5,7.5,0,0,1-.44-15A8.47,8.47,0,0,1,18,22a9,9,0,0,1,14.68-7A19,19,0,0,1,51,1m0-1A20,20,0,0,0,32.13,13.42,10,10,0,0,0,17,22v.14A8.5,8.5,0,0,0,18.5,39c2,0,15,.13,27.66.25,12.91.12,26.26.25,28.34.25a11,11,0,1,0-3.61-21.39A20.1,20.1,0,0,0,51,0Z"/></g></g></svg>